<?xml version="1.0" encoding="UTF-8"?>
<svg version="1.1" xmlns="http://www.w3.org/2000/svg" width="183" height="200">
<path d="M0 0 C0.99 0.495 0.99 0.495 2 1 C4.15726173 26.77053204 2.54846757 49.62065555 -14.57421875 70.234375 C-22.87911443 79.70275848 -31.39355254 88.83230619 -41 97 C-30.12520172 92.28074792 -21.69679681 83.88080106 -13 76 C-11.8211676 79.5364972 -12.09434419 79.9163283 -13.6875 83.125 C-20.53265072 96.09475926 -29.78538347 107.55939638 -40 118 C-40.83273438 118.88300781 -41.66546875 119.76601562 -42.5234375 120.67578125 C-48.13850148 126.51225942 -54.10200818 131.71270647 -61 136 C-61.66 136 -62.32 136 -63 136 C-63.27955924 129.83571875 -62.3970899 124.97008781 -60.5 119.125 C-58.72784509 114.15262189 -58.72784509 114.15262189 -58 109 C-58.99 109.99 -59.98 110.98 -61 112 C-61.33 111.01 -61.66 110.02 -62 109 C-64.31 113.95 -66.62 118.9 -69 124 C-69.99 124 -70.98 124 -72 124 C-73.15784829 81.45798175 -73.15784829 81.45798175 -59.41015625 65.109375 C-58 64 -58 64 -56 64 C-56.33 72.91 -56.66 81.82 -57 91 C-55.48473572 86.45420716 -54.1742198 81.96415083 -53.01171875 77.328125 C-52.63142168 75.84360584 -52.25054363 74.35923541 -51.86914062 72.875 C-51.27806979 70.56838212 -50.6902928 68.26116644 -50.11254883 65.95117188 C-47.10309052 53.94933388 -44.08497895 43.36657874 -35.125 34.375 C-34.06684902 33.27426292 -33.0095544 32.17270196 -31.953125 31.0703125 C-31.44716797 30.54856445 -30.94121094 30.02681641 -30.41992188 29.48925781 C-27.93743928 26.88555358 -25.62506341 24.13813478 -23.3046875 21.390625 C-22 20 -22 20 -20 19 C-20.40002988 26.17094138 -21.78844483 32.35246546 -24.3125 39.0625 C-24.6535376 39.98772461 -24.9945752 40.91294922 -25.34594727 41.86621094 C-29.79897983 53.58625724 -35.39084845 64.79931595 -41 76 C-41.33 76.66 -41.66 77.32 -42 78 C-28.96737898 58.79630347 -20.09038393 38.83014771 -15.26660156 16.15942383 C-13.93172352 10.27430673 -12.83878062 6.74536307 -8 3 C-9.182471 27.04357695 -19.93207863 49.31269345 -32.07177734 69.59594727 C-32.70809082 70.65998779 -33.3444043 71.72402832 -34 72.8203125 C-34.86625 74.24754639 -34.86625 74.24754639 -35.75 75.70361328 C-37.15936435 77.85701075 -37.15936435 77.85701075 -37 80 C-19.29041436 58.75523092 -9.0300073 36.25346748 -2.59863281 9.42773438 C-1.81692953 6.25756412 -0.92544064 3.13093003 0 0 Z M-45 81 C-44 83 -44 83 -44 83 Z M-61 106 C-60 108 -60 108 -60 108 Z " fill="#15A349" transform="translate(150,0)"/>
<path d="M0 0 C9.21296221 -0.23585183 18.99556721 0.3739318 26.50390625 6.125 C29.02622113 9.59318296 29.49490151 11.58471545 29.56640625 15.875 C27.24828845 28.445412 16.40185003 36.7779793 6.54907227 43.7734375 C-14.86426634 58.40428384 -46.73678062 77.01833064 -73.49609375 76.125 C-73.49609375 75.465 -73.49609375 74.805 -73.49609375 74.125 C-72.96467773 73.92455078 -72.43326172 73.72410156 -71.88574219 73.51757812 C-66.39021671 71.44175223 -60.90103453 69.34982252 -55.41650391 67.24511719 C-53.56548566 66.53516302 -51.71368945 65.82723116 -49.86083984 65.12207031 C-9.06178198 49.71935633 -9.06178198 49.71935633 21.609375 20.125 C22.91560402 17.2045229 23.23034109 15.24866982 22.50390625 12.125 C19.76240375 8.32907346 16.9675061 7.23969358 12.50390625 6.125 C8.4384473 5.85781133 4.38892508 5.89184935 0.31640625 5.9375 C-0.75673828 5.93814453 -1.82988281 5.93878906 -2.93554688 5.93945312 C-9.83721898 5.97703029 -16.6351804 6.38075662 -23.49609375 7.125 C-23.49609375 6.135 -23.49609375 5.145 -23.49609375 4.125 C-15.62546879 1.41040267 -8.27883523 0.41458956 0 0 Z " fill="#15A349" transform="translate(143.49609375,104.875)"/>
<path d="M0 0 C0.66 0 1.32 0 2 0 C1.86650146 0.53802246 1.73300293 1.07604492 1.59545898 1.63037109 C0.06557164 8.09360594 -0.62132869 14.45819498 -1.12304688 21.0703125 C-1.59399086 26.29736651 -2.67945158 30.28302692 -5 35 C-2.525 34.505 -2.525 34.505 0 34 C1.38730869 38.16192607 0.05703094 39.61876452 -1.875 43.5 C-5.39365824 50.46196854 -9.7285272 56.22794161 -15 62 C-15.52078125 62.59425781 -16.0415625 63.18851563 -16.578125 63.80078125 C-18 65 -18 65 -21 65 C-22.96185865 61.0762827 -22.22869395 56.18947467 -22.25 51.875 C-22.270625 50.8540625 -22.29125 49.833125 -22.3125 48.78125 C-22.34486378 42.48649455 -21.82287209 37.67243801 -19 32 C-16.3125 31 -16.3125 31 -14 31 C-13.67 31.66 -13.34 32.32 -13 33 C-12.566875 31.783125 -12.13375 30.56625 -11.6875 29.3125 C-10.83984179 26.93098409 -9.97623536 24.96359599 -8.58984375 22.83984375 C-6.3497591 18.83851317 -5.18187549 14.6303314 -3.875 10.25 C-3.35426482 8.52522349 -2.83096561 6.8012183 -2.3046875 5.078125 C-1.9641333 3.93972168 -1.9641333 3.93972168 -1.61669922 2.77832031 C-1 1 -1 1 0 0 Z " fill="#15A349" transform="translate(86,115)"/>
<path d="M0 0 C-0.19165039 1.83569336 -0.19165039 1.83569336 -1 4 C-3.12280273 5.38110352 -3.12280273 5.38110352 -5.93359375 6.62890625 C-6.96653564 7.10086426 -7.99947754 7.57282227 -9.0637207 8.05908203 C-10.17706787 8.55520996 -11.29041504 9.05133789 -12.4375 9.5625 C-41.94348497 23.13755889 -41.94348497 23.13755889 -63 47 C-63.89605187 50.19544424 -64.21879828 51.43932941 -63 54.5625 C-60.35762153 57.78289876 -57.70234661 59.11389889 -54 61 C-57 62 -57 62 -59.9375 60.875 C-63.29806263 58.81751267 -65.08290194 57.45077651 -67 54 C-67.27514981 45.74550572 -63.092021 40.53852223 -57.8359375 34.5234375 C-44.77757712 20.78451111 -27.54788809 12.00669167 -10.625 3.9375 C-9.79790527 3.54304688 -8.97081055 3.14859375 -8.11865234 2.7421875 C-2.2571037 0 -2.2571037 0 0 0 Z " fill="#15A34A" transform="translate(76,123)"/>
</svg>
